<mxfile host="app.diagrams.net" agent="Mozilla/5.0 (Windows NT 10.0; Win64; x64) AppleWebKit/537.36 (KHTML, like Gecko) Chrome/137.0.0.0 Safari/537.36" version="27.1.4">
  <diagram name="Page-1" id="w6ZAkszXO9jtFh7A7DWI">
    <mxGraphModel dx="1426" dy="743" grid="1" gridSize="10" guides="1" tooltips="1" connect="1" arrows="1" fold="1" page="1" pageScale="1" pageWidth="5000" pageHeight="5000" math="0" shadow="0">
      <root>
        <object label="" MyDesignSize="" id="0">
          <mxCell />
        </object>
        <mxCell id="1" parent="0" />
        <mxCell id="kkpZU5JGvrHapVZCyQs2-1" value="Customer" style="whiteSpace=wrap;html=1;aspect=fixed;labelBackgroundColor=none;fillColor=#dae8fc;gradientColor=#7ea6e0;strokeColor=#6c8ebf;" vertex="1" parent="1">
          <mxGeometry x="110" y="110" width="80" height="80" as="geometry" />
        </mxCell>
        <mxCell id="kkpZU5JGvrHapVZCyQs2-2" value="Audit Service" style="whiteSpace=wrap;html=1;aspect=fixed;labelBackgroundColor=none;fillColor=#dae8fc;gradientColor=#7ea6e0;strokeColor=#6c8ebf;" vertex="1" parent="1">
          <mxGeometry x="310" y="110" width="80" height="80" as="geometry" />
        </mxCell>
        <mxCell id="kkpZU5JGvrHapVZCyQs2-3" value="Audit Service&lt;br&gt;Database" style="whiteSpace=wrap;html=1;aspect=fixed;labelBackgroundColor=none;fillColor=#dae8fc;gradientColor=#7ea6e0;strokeColor=#6c8ebf;" vertex="1" parent="1">
          <mxGeometry x="520" y="110" width="80" height="80" as="geometry" />
        </mxCell>
        <mxCell id="kkpZU5JGvrHapVZCyQs2-4" value="Artemis" style="whiteSpace=wrap;html=1;aspect=fixed;labelBackgroundColor=none;fillColor=#dae8fc;gradientColor=#7ea6e0;strokeColor=#6c8ebf;" vertex="1" parent="1">
          <mxGeometry x="720" y="110" width="80" height="80" as="geometry" />
        </mxCell>
        <mxCell id="kkpZU5JGvrHapVZCyQs2-17" style="edgeStyle=orthogonalEdgeStyle;rounded=0;orthogonalLoop=1;jettySize=auto;html=1;exitX=0.5;exitY=1;exitDx=0;exitDy=0;endArrow=none;startFill=0;labelBackgroundColor=none;fontColor=default;" edge="1" parent="1" source="kkpZU5JGvrHapVZCyQs2-5">
          <mxGeometry relative="1" as="geometry">
            <mxPoint x="970" y="1040" as="targetPoint" />
          </mxGeometry>
        </mxCell>
        <mxCell id="kkpZU5JGvrHapVZCyQs2-5" value="Keycloak" style="whiteSpace=wrap;html=1;aspect=fixed;labelBackgroundColor=none;fillColor=#dae8fc;gradientColor=#7ea6e0;strokeColor=#6c8ebf;" vertex="1" parent="1">
          <mxGeometry x="930" y="110" width="80" height="80" as="geometry" />
        </mxCell>
        <mxCell id="kkpZU5JGvrHapVZCyQs2-18" style="edgeStyle=orthogonalEdgeStyle;rounded=0;orthogonalLoop=1;jettySize=auto;html=1;endArrow=none;startFill=0;labelBackgroundColor=none;fontColor=default;" edge="1" parent="1" source="kkpZU5JGvrHapVZCyQs2-6">
          <mxGeometry relative="1" as="geometry">
            <mxPoint x="1160" y="1044" as="targetPoint" />
          </mxGeometry>
        </mxCell>
        <mxCell id="kkpZU5JGvrHapVZCyQs2-6" value="End User" style="whiteSpace=wrap;html=1;aspect=fixed;labelBackgroundColor=none;fillColor=#dae8fc;strokeColor=#6c8ebf;gradientColor=#7ea6e0;" vertex="1" parent="1">
          <mxGeometry x="1120" y="110" width="80" height="80" as="geometry" />
        </mxCell>
        <mxCell id="kkpZU5JGvrHapVZCyQs2-9" value="" style="endArrow=none;html=1;rounded=0;entryX=0.5;entryY=1;entryDx=0;entryDy=0;labelBackgroundColor=none;fontColor=default;" edge="1" parent="1" target="kkpZU5JGvrHapVZCyQs2-1">
          <mxGeometry width="50" height="50" relative="1" as="geometry">
            <mxPoint x="150" y="1040" as="sourcePoint" />
            <mxPoint x="610" y="340" as="targetPoint" />
          </mxGeometry>
        </mxCell>
        <mxCell id="kkpZU5JGvrHapVZCyQs2-11" value="" style="endArrow=none;html=1;rounded=0;entryX=0.5;entryY=1;entryDx=0;entryDy=0;labelBackgroundColor=none;fontColor=default;" edge="1" parent="1" target="kkpZU5JGvrHapVZCyQs2-2">
          <mxGeometry width="50" height="50" relative="1" as="geometry">
            <mxPoint x="350" y="1040" as="sourcePoint" />
            <mxPoint x="600" y="440" as="targetPoint" />
          </mxGeometry>
        </mxCell>
        <mxCell id="kkpZU5JGvrHapVZCyQs2-12" value="" style="endArrow=none;html=1;rounded=0;entryX=0.5;entryY=1;entryDx=0;entryDy=0;labelBackgroundColor=none;fontColor=default;" edge="1" parent="1" target="kkpZU5JGvrHapVZCyQs2-3">
          <mxGeometry width="50" height="50" relative="1" as="geometry">
            <mxPoint x="560" y="1050" as="sourcePoint" />
            <mxPoint x="610" y="430" as="targetPoint" />
          </mxGeometry>
        </mxCell>
        <mxCell id="kkpZU5JGvrHapVZCyQs2-16" value="" style="endArrow=none;html=1;rounded=0;entryX=0.5;entryY=1;entryDx=0;entryDy=0;labelBackgroundColor=none;fontColor=default;" edge="1" parent="1" target="kkpZU5JGvrHapVZCyQs2-4">
          <mxGeometry width="50" height="50" relative="1" as="geometry">
            <mxPoint x="760" y="1042" as="sourcePoint" />
            <mxPoint x="610" y="550" as="targetPoint" />
          </mxGeometry>
        </mxCell>
        <mxCell id="kkpZU5JGvrHapVZCyQs2-19" value="User Perform Login Action" style="rounded=0;whiteSpace=wrap;html=1;labelBackgroundColor=none;fillColor=#fad7ac;strokeColor=#b46504;" vertex="1" parent="1">
          <mxGeometry x="715" y="220" width="510" height="20" as="geometry" />
        </mxCell>
        <mxCell id="kkpZU5JGvrHapVZCyQs2-21" value="" style="endArrow=classic;html=1;rounded=0;" edge="1" parent="1">
          <mxGeometry width="50" height="50" relative="1" as="geometry">
            <mxPoint x="1160" y="290" as="sourcePoint" />
            <mxPoint x="970" y="290" as="targetPoint" />
          </mxGeometry>
        </mxCell>
        <mxCell id="kkpZU5JGvrHapVZCyQs2-22" value="1. Login Attempt" style="text;html=1;align=center;verticalAlign=middle;resizable=0;points=[];autosize=1;strokeColor=none;fillColor=none;" vertex="1" parent="1">
          <mxGeometry x="1000" y="258" width="110" height="30" as="geometry" />
        </mxCell>
        <mxCell id="kkpZU5JGvrHapVZCyQs2-46" value="" style="edgeStyle=segmentEdgeStyle;endArrow=classic;html=1;curved=0;rounded=0;endSize=8;startSize=8;" edge="1" parent="1">
          <mxGeometry width="50" height="50" relative="1" as="geometry">
            <mxPoint x="970" y="330" as="sourcePoint" />
            <mxPoint x="970" y="350" as="targetPoint" />
            <Array as="points">
              <mxPoint x="1010" y="330" />
              <mxPoint x="1010" y="350" />
            </Array>
          </mxGeometry>
        </mxCell>
        <mxCell id="kkpZU5JGvrHapVZCyQs2-47" value="2. Event Listener SPI Enriches With OrgId" style="text;html=1;align=center;verticalAlign=middle;resizable=0;points=[];autosize=1;strokeColor=none;fillColor=none;" vertex="1" parent="1">
          <mxGeometry x="930" y="298" width="250" height="30" as="geometry" />
        </mxCell>
        <mxCell id="kkpZU5JGvrHapVZCyQs2-48" value="" style="endArrow=classic;html=1;rounded=0;" edge="1" parent="1">
          <mxGeometry width="50" height="50" relative="1" as="geometry">
            <mxPoint x="970" y="380" as="sourcePoint" />
            <mxPoint x="760" y="380" as="targetPoint" />
          </mxGeometry>
        </mxCell>
        <mxCell id="kkpZU5JGvrHapVZCyQs2-49" value="3. Send Events to identity-login-events queue" style="text;html=1;align=center;verticalAlign=middle;resizable=0;points=[];autosize=1;strokeColor=none;fillColor=none;" vertex="1" parent="1">
          <mxGeometry x="700" y="350" width="270" height="30" as="geometry" />
        </mxCell>
        <mxCell id="kkpZU5JGvrHapVZCyQs2-50" value="" style="endArrow=classic;html=1;rounded=0;" edge="1" parent="1">
          <mxGeometry width="50" height="50" relative="1" as="geometry">
            <mxPoint x="350" y="430" as="sourcePoint" />
            <mxPoint x="760" y="430" as="targetPoint" />
          </mxGeometry>
        </mxCell>
        <mxCell id="kkpZU5JGvrHapVZCyQs2-51" value="&lt;span style=&quot;color: rgb(0, 0, 0); font-family: Helvetica; font-size: 12px; font-style: normal; font-variant-ligatures: normal; font-variant-caps: normal; font-weight: 400; letter-spacing: normal; orphans: 2; text-align: center; text-indent: 0px; text-transform: none; widows: 2; word-spacing: 0px; -webkit-text-stroke-width: 0px; white-space: nowrap; background-color: rgb(236, 236, 236); text-decoration-thickness: initial; text-decoration-style: initial; text-decoration-color: initial; float: none; display: inline !important;&quot;&gt;4. Consume Events fromidentity-login-events queue&lt;/span&gt;" style="text;whiteSpace=wrap;html=1;" vertex="1" parent="1">
          <mxGeometry x="400" y="400" width="280" height="40" as="geometry" />
        </mxCell>
        <mxCell id="kkpZU5JGvrHapVZCyQs2-52" value="" style="endArrow=classic;html=1;rounded=0;" edge="1" parent="1">
          <mxGeometry width="50" height="50" relative="1" as="geometry">
            <mxPoint x="350" y="480" as="sourcePoint" />
            <mxPoint x="560" y="480" as="targetPoint" />
          </mxGeometry>
        </mxCell>
        <mxCell id="kkpZU5JGvrHapVZCyQs2-53" value="5, Store Events in a Audit Table" style="text;html=1;align=center;verticalAlign=middle;resizable=0;points=[];autosize=1;strokeColor=none;fillColor=none;" vertex="1" parent="1">
          <mxGeometry x="360" y="450" width="190" height="30" as="geometry" />
        </mxCell>
        <mxCell id="kkpZU5JGvrHapVZCyQs2-54" value="Customer Request Login Attempts" style="rounded=0;whiteSpace=wrap;html=1;fillColor=#fad7ac;strokeColor=#b46504;" vertex="1" parent="1">
          <mxGeometry x="110" y="520" width="480" height="20" as="geometry" />
        </mxCell>
        <mxCell id="kkpZU5JGvrHapVZCyQs2-57" value="" style="endArrow=classic;html=1;rounded=0;" edge="1" parent="1">
          <mxGeometry width="50" height="50" relative="1" as="geometry">
            <mxPoint x="150" y="580" as="sourcePoint" />
            <mxPoint x="350" y="580" as="targetPoint" />
          </mxGeometry>
        </mxCell>
        <mxCell id="kkpZU5JGvrHapVZCyQs2-58" value="1.POST /audit/admin/audit/search" style="text;html=1;align=center;verticalAlign=middle;resizable=0;points=[];autosize=1;strokeColor=none;fillColor=none;" vertex="1" parent="1">
          <mxGeometry x="140" y="558" width="200" height="30" as="geometry" />
        </mxCell>
        <mxCell id="kkpZU5JGvrHapVZCyQs2-59" value="" style="endArrow=classic;html=1;rounded=0;" edge="1" parent="1">
          <mxGeometry width="50" height="50" relative="1" as="geometry">
            <mxPoint x="350" y="630" as="sourcePoint" />
            <mxPoint x="560" y="630" as="targetPoint" />
          </mxGeometry>
        </mxCell>
        <mxCell id="kkpZU5JGvrHapVZCyQs2-60" value="2. Query Events in Audit Table" style="text;html=1;align=center;verticalAlign=middle;resizable=0;points=[];autosize=1;strokeColor=none;fillColor=none;" vertex="1" parent="1">
          <mxGeometry x="360" y="598" width="180" height="30" as="geometry" />
        </mxCell>
        <mxCell id="kkpZU5JGvrHapVZCyQs2-61" value="" style="endArrow=none;dashed=1;html=1;rounded=0;strokeColor=default;startArrow=classic;startFill=1;" edge="1" parent="1">
          <mxGeometry width="50" height="50" relative="1" as="geometry">
            <mxPoint x="350" y="690" as="sourcePoint" />
            <mxPoint x="560" y="690" as="targetPoint" />
          </mxGeometry>
        </mxCell>
        <mxCell id="kkpZU5JGvrHapVZCyQs2-63" value="3. Return Matching Events" style="text;html=1;align=center;verticalAlign=middle;resizable=0;points=[];autosize=1;strokeColor=none;fillColor=none;" vertex="1" parent="1">
          <mxGeometry x="370" y="658" width="160" height="30" as="geometry" />
        </mxCell>
        <mxCell id="kkpZU5JGvrHapVZCyQs2-64" value="" style="endArrow=none;dashed=1;html=1;rounded=0;strokeColor=default;startArrow=classic;startFill=1;" edge="1" parent="1">
          <mxGeometry width="50" height="50" relative="1" as="geometry">
            <mxPoint x="150" y="730" as="sourcePoint" />
            <mxPoint x="350" y="730" as="targetPoint" />
          </mxGeometry>
        </mxCell>
        <mxCell id="kkpZU5JGvrHapVZCyQs2-65" value="4. Return JSON Response" style="text;html=1;align=center;verticalAlign=middle;resizable=0;points=[];autosize=1;strokeColor=none;fillColor=none;" vertex="1" parent="1">
          <mxGeometry x="170" y="698" width="170" height="30" as="geometry" />
        </mxCell>
      </root>
    </mxGraphModel>
  </diagram>
</mxfile>
